<mxfile host="app.diagrams.net" agent="Mozilla/5.0 (Windows NT 10.0; Win64; x64) AppleWebKit/537.36 (KHTML, like Gecko) Chrome/131.0.0.0 Safari/537.36" version="25.0.1">
  <diagram name="Page-1" id="7xtKeq4wm0HmQkQlRDKq">
    <mxGraphModel grid="1" page="1" gridSize="10" guides="1" tooltips="1" connect="1" arrows="1" fold="1" pageScale="1" pageWidth="850" pageHeight="1100" math="0" shadow="0">
      <root>
        <mxCell id="0" />
        <mxCell id="1" parent="0" />
        <mxCell id="oVlz8-3BBZwthBougQ5R-2" value="" style="rounded=0;whiteSpace=wrap;html=1;" vertex="1" parent="1">
          <mxGeometry x="120" y="20" width="600" height="900" as="geometry" />
        </mxCell>
        <mxCell id="oVlz8-3BBZwthBougQ5R-3" value="Register User" style="ellipse;whiteSpace=wrap;html=1;" vertex="1" parent="1">
          <mxGeometry x="290" y="90" width="160" height="50" as="geometry" />
        </mxCell>
        <mxCell id="oVlz8-3BBZwthBougQ5R-4" value="Login" style="ellipse;whiteSpace=wrap;html=1;" vertex="1" parent="1">
          <mxGeometry x="230" y="170" width="160" height="50" as="geometry" />
        </mxCell>
        <mxCell id="oVlz8-3BBZwthBougQ5R-15" value="Eligibility" style="ellipse;whiteSpace=wrap;html=1;" vertex="1" parent="1">
          <mxGeometry x="230" y="230" width="160" height="50" as="geometry" />
        </mxCell>
        <mxCell id="oVlz8-3BBZwthBougQ5R-16" value="Donation history" style="ellipse;whiteSpace=wrap;html=1;" vertex="1" parent="1">
          <mxGeometry x="230" y="290" width="160" height="50" as="geometry" />
        </mxCell>
        <mxCell id="oVlz8-3BBZwthBougQ5R-17" value="Apointment Donation" style="ellipse;whiteSpace=wrap;html=1;" vertex="1" parent="1">
          <mxGeometry x="230" y="350" width="160" height="50" as="geometry" />
        </mxCell>
        <mxCell id="oVlz8-3BBZwthBougQ5R-18" value="search blood center" style="ellipse;whiteSpace=wrap;html=1;" vertex="1" parent="1">
          <mxGeometry x="460" y="170" width="160" height="50" as="geometry" />
        </mxCell>
        <mxCell id="oVlz8-3BBZwthBougQ5R-19" value="Request blood" style="ellipse;whiteSpace=wrap;html=1;" vertex="1" parent="1">
          <mxGeometry x="460" y="230" width="160" height="50" as="geometry" />
        </mxCell>
        <mxCell id="oVlz8-3BBZwthBougQ5R-20" value="Give Feedback" style="ellipse;whiteSpace=wrap;html=1;" vertex="1" parent="1">
          <mxGeometry x="460" y="290" width="160" height="50" as="geometry" />
        </mxCell>
        <mxCell id="oVlz8-3BBZwthBougQ5R-22" value="Check Status" style="ellipse;whiteSpace=wrap;html=1;" vertex="1" parent="1">
          <mxGeometry x="460" y="350" width="160" height="50" as="geometry" />
        </mxCell>
        <mxCell id="oVlz8-3BBZwthBougQ5R-23" value="View Donar history" style="ellipse;whiteSpace=wrap;html=1;" vertex="1" parent="1">
          <mxGeometry x="460" y="410" width="160" height="50" as="geometry" />
        </mxCell>
        <mxCell id="oVlz8-3BBZwthBougQ5R-24" value="View Blood Storage" style="ellipse;whiteSpace=wrap;html=1;" vertex="1" parent="1">
          <mxGeometry x="230" y="570" width="160" height="50" as="geometry" />
        </mxCell>
        <mxCell id="oVlz8-3BBZwthBougQ5R-25" value="Organize blood camps" style="ellipse;whiteSpace=wrap;html=1;" vertex="1" parent="1">
          <mxGeometry x="230" y="690" width="160" height="50" as="geometry" />
        </mxCell>
        <mxCell id="oVlz8-3BBZwthBougQ5R-26" value="Check Feedback" style="ellipse;whiteSpace=wrap;html=1;" vertex="1" parent="1">
          <mxGeometry x="230" y="630" width="160" height="50" as="geometry" />
        </mxCell>
        <mxCell id="oVlz8-3BBZwthBougQ5R-27" value="Transport blood&amp;nbsp;&lt;span style=&quot;white-space: pre;&quot;&gt;&#x9;&lt;/span&gt;" style="ellipse;whiteSpace=wrap;html=1;" vertex="1" parent="1">
          <mxGeometry x="230" y="750" width="160" height="50" as="geometry" />
        </mxCell>
        <mxCell id="oVlz8-3BBZwthBougQ5R-28" value="Blood test" style="ellipse;whiteSpace=wrap;html=1;" vertex="1" parent="1">
          <mxGeometry x="230" y="810" width="160" height="50" as="geometry" />
        </mxCell>
        <mxCell id="oVlz8-3BBZwthBougQ5R-29" value="Send messages" style="ellipse;whiteSpace=wrap;html=1;" vertex="1" parent="1">
          <mxGeometry x="460" y="490" width="160" height="50" as="geometry" />
        </mxCell>
        <mxCell id="oVlz8-3BBZwthBougQ5R-30" value="Generate Reports&amp;nbsp;" style="ellipse;whiteSpace=wrap;html=1;" vertex="1" parent="1">
          <mxGeometry x="460" y="550" width="160" height="50" as="geometry" />
        </mxCell>
        <mxCell id="oVlz8-3BBZwthBougQ5R-31" value="Monitor Request" style="ellipse;whiteSpace=wrap;html=1;" vertex="1" parent="1">
          <mxGeometry x="460" y="610" width="160" height="50" as="geometry" />
        </mxCell>
        <mxCell id="oVlz8-3BBZwthBougQ5R-33" value="Respond to complains" style="ellipse;whiteSpace=wrap;html=1;" vertex="1" parent="1">
          <mxGeometry x="460" y="670" width="160" height="50" as="geometry" />
        </mxCell>
        <mxCell id="oVlz8-3BBZwthBougQ5R-34" value="Access Privilages" style="ellipse;whiteSpace=wrap;html=1;" vertex="1" parent="1">
          <mxGeometry x="460" y="730" width="160" height="50" as="geometry" />
        </mxCell>
        <mxCell id="oVlz8-3BBZwthBougQ5R-35" value="null" style="ellipse;whiteSpace=wrap;html=1;" vertex="1" parent="1">
          <mxGeometry x="460" y="790" width="160" height="50" as="geometry" />
        </mxCell>
        <mxCell id="oVlz8-3BBZwthBougQ5R-52" style="rounded=0;orthogonalLoop=1;jettySize=auto;html=1;exitX=1;exitY=0.3333333333333333;exitDx=0;exitDy=0;exitPerimeter=0;entryX=0;entryY=0.5;entryDx=0;entryDy=0;endArrow=none;endFill=0;" edge="1" parent="1" source="oVlz8-3BBZwthBougQ5R-39" target="oVlz8-3BBZwthBougQ5R-3">
          <mxGeometry relative="1" as="geometry" />
        </mxCell>
        <mxCell id="oVlz8-3BBZwthBougQ5R-54" style="rounded=0;orthogonalLoop=1;jettySize=auto;html=1;exitX=1;exitY=0.3333333333333333;exitDx=0;exitDy=0;exitPerimeter=0;entryX=0;entryY=0.5;entryDx=0;entryDy=0;endArrow=none;endFill=0;" edge="1" parent="1" source="oVlz8-3BBZwthBougQ5R-39" target="oVlz8-3BBZwthBougQ5R-4">
          <mxGeometry relative="1" as="geometry" />
        </mxCell>
        <mxCell id="oVlz8-3BBZwthBougQ5R-39" value="Donar" style="shape=umlActor;verticalLabelPosition=bottom;verticalAlign=top;html=1;outlineConnect=0;" vertex="1" parent="1">
          <mxGeometry x="40" y="230" width="30" height="60" as="geometry" />
        </mxCell>
        <mxCell id="oVlz8-3BBZwthBougQ5R-55" style="rounded=0;orthogonalLoop=1;jettySize=auto;html=1;exitX=1;exitY=0.3333333333333333;exitDx=0;exitDy=0;exitPerimeter=0;entryX=0;entryY=0.5;entryDx=0;entryDy=0;endArrow=none;endFill=0;" edge="1" parent="1" source="oVlz8-3BBZwthBougQ5R-39" target="oVlz8-3BBZwthBougQ5R-15">
          <mxGeometry relative="1" as="geometry">
            <mxPoint x="80" y="250" as="sourcePoint" />
            <mxPoint x="240" y="145" as="targetPoint" />
          </mxGeometry>
        </mxCell>
        <mxCell id="oVlz8-3BBZwthBougQ5R-56" value="" style="endArrow=none;html=1;rounded=0;entryX=0;entryY=0.5;entryDx=0;entryDy=0;exitX=1;exitY=0.3333333333333333;exitDx=0;exitDy=0;exitPerimeter=0;" edge="1" parent="1" source="oVlz8-3BBZwthBougQ5R-39" target="oVlz8-3BBZwthBougQ5R-16">
          <mxGeometry width="50" height="50" relative="1" as="geometry">
            <mxPoint x="110" y="280" as="sourcePoint" />
            <mxPoint x="270" y="235" as="targetPoint" />
          </mxGeometry>
        </mxCell>
        <mxCell id="oVlz8-3BBZwthBougQ5R-57" value="" style="endArrow=none;html=1;rounded=0;entryX=0;entryY=0.5;entryDx=0;entryDy=0;exitX=1;exitY=0.3333333333333333;exitDx=0;exitDy=0;exitPerimeter=0;" edge="1" parent="1" source="oVlz8-3BBZwthBougQ5R-39" target="oVlz8-3BBZwthBougQ5R-17">
          <mxGeometry width="50" height="50" relative="1" as="geometry">
            <mxPoint x="120" y="290" as="sourcePoint" />
            <mxPoint x="280" y="245" as="targetPoint" />
          </mxGeometry>
        </mxCell>
        <mxCell id="oVlz8-3BBZwthBougQ5R-64" style="rounded=0;orthogonalLoop=1;jettySize=auto;html=1;exitX=1;exitY=0.3333333333333333;exitDx=0;exitDy=0;exitPerimeter=0;entryX=0;entryY=0.5;entryDx=0;entryDy=0;endArrow=none;endFill=0;" edge="1" parent="1" source="oVlz8-3BBZwthBougQ5R-66">
          <mxGeometry relative="1" as="geometry">
            <mxPoint x="230" y="595" as="targetPoint" />
          </mxGeometry>
        </mxCell>
        <mxCell id="oVlz8-3BBZwthBougQ5R-65" style="rounded=0;orthogonalLoop=1;jettySize=auto;html=1;exitX=1;exitY=0.3333333333333333;exitDx=0;exitDy=0;exitPerimeter=0;entryX=0;entryY=0.5;entryDx=0;entryDy=0;endArrow=none;endFill=0;" edge="1" parent="1" source="oVlz8-3BBZwthBougQ5R-66">
          <mxGeometry relative="1" as="geometry">
            <mxPoint x="230" y="655" as="targetPoint" />
          </mxGeometry>
        </mxCell>
        <mxCell id="oVlz8-3BBZwthBougQ5R-66" value="Hospital" style="shape=umlActor;verticalLabelPosition=bottom;verticalAlign=top;html=1;outlineConnect=0;" vertex="1" parent="1">
          <mxGeometry x="40" y="680" width="30" height="60" as="geometry" />
        </mxCell>
        <mxCell id="oVlz8-3BBZwthBougQ5R-67" style="rounded=0;orthogonalLoop=1;jettySize=auto;html=1;exitX=1;exitY=0.3333333333333333;exitDx=0;exitDy=0;exitPerimeter=0;entryX=0;entryY=0.5;entryDx=0;entryDy=0;endArrow=none;endFill=0;" edge="1" parent="1" source="oVlz8-3BBZwthBougQ5R-66">
          <mxGeometry relative="1" as="geometry">
            <mxPoint x="80" y="710" as="sourcePoint" />
            <mxPoint x="230" y="715" as="targetPoint" />
          </mxGeometry>
        </mxCell>
        <mxCell id="oVlz8-3BBZwthBougQ5R-68" value="" style="endArrow=none;html=1;rounded=0;entryX=0;entryY=0.5;entryDx=0;entryDy=0;exitX=1;exitY=0.3333333333333333;exitDx=0;exitDy=0;exitPerimeter=0;" edge="1" parent="1" source="oVlz8-3BBZwthBougQ5R-66">
          <mxGeometry width="50" height="50" relative="1" as="geometry">
            <mxPoint x="110" y="740" as="sourcePoint" />
            <mxPoint x="230" y="775" as="targetPoint" />
          </mxGeometry>
        </mxCell>
        <mxCell id="oVlz8-3BBZwthBougQ5R-69" value="" style="endArrow=none;html=1;rounded=0;entryX=0;entryY=0.5;entryDx=0;entryDy=0;exitX=1;exitY=0.3333333333333333;exitDx=0;exitDy=0;exitPerimeter=0;" edge="1" parent="1" source="oVlz8-3BBZwthBougQ5R-66">
          <mxGeometry width="50" height="50" relative="1" as="geometry">
            <mxPoint x="120" y="750" as="sourcePoint" />
            <mxPoint x="230" y="835" as="targetPoint" />
          </mxGeometry>
        </mxCell>
        <mxCell id="oVlz8-3BBZwthBougQ5R-77" style="rounded=0;orthogonalLoop=1;jettySize=auto;html=1;exitX=0;exitY=0.3333333333333333;exitDx=0;exitDy=0;exitPerimeter=0;entryX=1;entryY=0.5;entryDx=0;entryDy=0;endArrow=none;endFill=0;" edge="1" parent="1" source="oVlz8-3BBZwthBougQ5R-76" target="oVlz8-3BBZwthBougQ5R-18">
          <mxGeometry relative="1" as="geometry" />
        </mxCell>
        <mxCell id="oVlz8-3BBZwthBougQ5R-76" value="Recipent" style="shape=umlActor;verticalLabelPosition=bottom;verticalAlign=top;html=1;outlineConnect=0;" vertex="1" parent="1">
          <mxGeometry x="770" y="220" width="30" height="60" as="geometry" />
        </mxCell>
        <mxCell id="oVlz8-3BBZwthBougQ5R-78" style="rounded=0;orthogonalLoop=1;jettySize=auto;html=1;exitX=0;exitY=0.3333333333333333;exitDx=0;exitDy=0;exitPerimeter=0;endArrow=none;endFill=0;entryX=1;entryY=0.5;entryDx=0;entryDy=0;" edge="1" parent="1" source="oVlz8-3BBZwthBougQ5R-76" target="oVlz8-3BBZwthBougQ5R-19">
          <mxGeometry relative="1" as="geometry">
            <mxPoint x="770" y="362.5" as="sourcePoint" />
            <mxPoint x="620" y="258" as="targetPoint" />
          </mxGeometry>
        </mxCell>
        <mxCell id="oVlz8-3BBZwthBougQ5R-85" style="rounded=0;orthogonalLoop=1;jettySize=auto;html=1;exitX=0;exitY=0.3333333333333333;exitDx=0;exitDy=0;exitPerimeter=0;entryX=1;entryY=0.5;entryDx=0;entryDy=0;endArrow=none;endFill=0;" edge="1" parent="1" source="oVlz8-3BBZwthBougQ5R-76" target="oVlz8-3BBZwthBougQ5R-20">
          <mxGeometry relative="1" as="geometry">
            <mxPoint x="770" y="410" as="sourcePoint" />
            <mxPoint x="620" y="305" as="targetPoint" />
          </mxGeometry>
        </mxCell>
        <mxCell id="oVlz8-3BBZwthBougQ5R-86" style="rounded=0;orthogonalLoop=1;jettySize=auto;html=1;entryX=1;entryY=0.5;entryDx=0;entryDy=0;endArrow=none;endFill=0;exitX=0;exitY=0.3333333333333333;exitDx=0;exitDy=0;exitPerimeter=0;" edge="1" parent="1" source="oVlz8-3BBZwthBougQ5R-76" target="oVlz8-3BBZwthBougQ5R-22">
          <mxGeometry relative="1" as="geometry">
            <mxPoint x="770" y="300" as="sourcePoint" />
            <mxPoint x="620" y="355" as="targetPoint" />
          </mxGeometry>
        </mxCell>
        <mxCell id="oVlz8-3BBZwthBougQ5R-87" style="rounded=0;orthogonalLoop=1;jettySize=auto;html=1;exitX=0;exitY=0.3333333333333333;exitDx=0;exitDy=0;exitPerimeter=0;entryX=1;entryY=0.5;entryDx=0;entryDy=0;endArrow=none;endFill=0;" edge="1" parent="1" source="oVlz8-3BBZwthBougQ5R-76" target="oVlz8-3BBZwthBougQ5R-23">
          <mxGeometry relative="1" as="geometry">
            <mxPoint x="750" y="545" as="sourcePoint" />
            <mxPoint x="600" y="440" as="targetPoint" />
          </mxGeometry>
        </mxCell>
        <mxCell id="oVlz8-3BBZwthBougQ5R-107" style="rounded=0;orthogonalLoop=1;jettySize=auto;html=1;exitX=0;exitY=0.3333333333333333;exitDx=0;exitDy=0;exitPerimeter=0;entryX=1;entryY=0.5;entryDx=0;entryDy=0;endArrow=none;endFill=0;" edge="1" parent="1" source="oVlz8-3BBZwthBougQ5R-100" target="oVlz8-3BBZwthBougQ5R-35">
          <mxGeometry relative="1" as="geometry" />
        </mxCell>
        <mxCell id="oVlz8-3BBZwthBougQ5R-100" value="Admin" style="shape=umlActor;verticalLabelPosition=bottom;verticalAlign=top;html=1;outlineConnect=0;" vertex="1" parent="1">
          <mxGeometry x="770" y="600" width="30" height="60" as="geometry" />
        </mxCell>
        <mxCell id="oVlz8-3BBZwthBougQ5R-101" style="rounded=0;orthogonalLoop=1;jettySize=auto;html=1;exitX=0;exitY=0.3333333333333333;exitDx=0;exitDy=0;exitPerimeter=0;entryX=1;entryY=0.5;entryDx=0;entryDy=0;endArrow=none;endFill=0;" edge="1" parent="1" target="oVlz8-3BBZwthBougQ5R-29">
          <mxGeometry relative="1" as="geometry">
            <mxPoint x="770" y="620" as="sourcePoint" />
            <mxPoint x="620" y="515" as="targetPoint" />
          </mxGeometry>
        </mxCell>
        <mxCell id="oVlz8-3BBZwthBougQ5R-102" style="rounded=0;orthogonalLoop=1;jettySize=auto;html=1;exitX=0;exitY=0.3333333333333333;exitDx=0;exitDy=0;exitPerimeter=0;endArrow=none;endFill=0;entryX=1;entryY=0.5;entryDx=0;entryDy=0;" edge="1" parent="1" target="oVlz8-3BBZwthBougQ5R-30">
          <mxGeometry relative="1" as="geometry">
            <mxPoint x="770" y="620" as="sourcePoint" />
            <mxPoint x="620" y="575" as="targetPoint" />
          </mxGeometry>
        </mxCell>
        <mxCell id="oVlz8-3BBZwthBougQ5R-103" style="rounded=0;orthogonalLoop=1;jettySize=auto;html=1;exitX=0;exitY=0.3333333333333333;exitDx=0;exitDy=0;exitPerimeter=0;entryX=1;entryY=0.5;entryDx=0;entryDy=0;endArrow=none;endFill=0;" edge="1" parent="1" target="oVlz8-3BBZwthBougQ5R-31">
          <mxGeometry relative="1" as="geometry">
            <mxPoint x="770" y="620" as="sourcePoint" />
            <mxPoint x="620" y="635" as="targetPoint" />
          </mxGeometry>
        </mxCell>
        <mxCell id="oVlz8-3BBZwthBougQ5R-104" style="rounded=0;orthogonalLoop=1;jettySize=auto;html=1;entryX=1;entryY=0.5;entryDx=0;entryDy=0;endArrow=none;endFill=0;exitX=0;exitY=0.3333333333333333;exitDx=0;exitDy=0;exitPerimeter=0;" edge="1" parent="1" target="oVlz8-3BBZwthBougQ5R-33">
          <mxGeometry relative="1" as="geometry">
            <mxPoint x="770" y="620" as="sourcePoint" />
            <mxPoint x="620" y="695" as="targetPoint" />
          </mxGeometry>
        </mxCell>
        <mxCell id="oVlz8-3BBZwthBougQ5R-105" style="rounded=0;orthogonalLoop=1;jettySize=auto;html=1;exitX=0;exitY=0.3333333333333333;exitDx=0;exitDy=0;exitPerimeter=0;entryX=1;entryY=0.5;entryDx=0;entryDy=0;endArrow=none;endFill=0;" edge="1" parent="1" source="oVlz8-3BBZwthBougQ5R-100" target="oVlz8-3BBZwthBougQ5R-34">
          <mxGeometry relative="1" as="geometry">
            <mxPoint x="770" y="620" as="sourcePoint" />
            <mxPoint x="620" y="755" as="targetPoint" />
          </mxGeometry>
        </mxCell>
        <mxCell id="oVlz8-3BBZwthBougQ5R-109" value="&lt;h1 style=&quot;margin-top: 0px;&quot;&gt;Bloodbank Management System&lt;/h1&gt;" style="text;html=1;whiteSpace=wrap;overflow=hidden;rounded=0;" vertex="1" parent="1">
          <mxGeometry x="240" y="40" width="430" height="50" as="geometry" />
        </mxCell>
        <mxCell id="GbYZ_7t2dMc6QBxDH4hZ-1" value="Update profile" style="ellipse;whiteSpace=wrap;html=1;" vertex="1" parent="1">
          <mxGeometry x="230" y="410" width="160" height="50" as="geometry" />
        </mxCell>
        <mxCell id="GbYZ_7t2dMc6QBxDH4hZ-2" value="Certificates" style="ellipse;whiteSpace=wrap;html=1;" vertex="1" parent="1">
          <mxGeometry x="230" y="470" width="160" height="50" as="geometry" />
        </mxCell>
        <mxCell id="GbYZ_7t2dMc6QBxDH4hZ-5" value="" style="endArrow=none;html=1;rounded=0;exitX=1;exitY=0.3333333333333333;exitDx=0;exitDy=0;exitPerimeter=0;entryX=0;entryY=0.5;entryDx=0;entryDy=0;" edge="1" parent="1" source="oVlz8-3BBZwthBougQ5R-39" target="GbYZ_7t2dMc6QBxDH4hZ-1">
          <mxGeometry width="50" height="50" relative="1" as="geometry">
            <mxPoint x="70" y="300" as="sourcePoint" />
            <mxPoint x="230" y="430" as="targetPoint" />
          </mxGeometry>
        </mxCell>
        <mxCell id="GbYZ_7t2dMc6QBxDH4hZ-6" value="" style="endArrow=none;html=1;rounded=0;entryX=0;entryY=0.5;entryDx=0;entryDy=0;exitX=1;exitY=0.3333333333333333;exitDx=0;exitDy=0;exitPerimeter=0;" edge="1" parent="1" source="oVlz8-3BBZwthBougQ5R-39" target="GbYZ_7t2dMc6QBxDH4hZ-2">
          <mxGeometry width="50" height="50" relative="1" as="geometry">
            <mxPoint x="60" y="360" as="sourcePoint" />
            <mxPoint x="220" y="495" as="targetPoint" />
          </mxGeometry>
        </mxCell>
        <mxCell id="GbYZ_7t2dMc6QBxDH4hZ-7" style="rounded=0;orthogonalLoop=1;jettySize=auto;html=1;exitX=0;exitY=0.3333333333333333;exitDx=0;exitDy=0;exitPerimeter=0;entryX=1;entryY=0.5;entryDx=0;entryDy=0;endArrow=none;endFill=0;" edge="1" parent="1" source="oVlz8-3BBZwthBougQ5R-76" target="oVlz8-3BBZwthBougQ5R-3">
          <mxGeometry relative="1" as="geometry">
            <mxPoint x="790" y="270" as="sourcePoint" />
            <mxPoint x="630" y="160" as="targetPoint" />
          </mxGeometry>
        </mxCell>
      </root>
    </mxGraphModel>
  </diagram>
</mxfile>
